<svg xmlns="http://www.w3.org/2000/svg" viewBox="0 0 256 144" role="img" aria-label="P-34 Breacher — original symbolic icon"><title>P-34 Breacher</title><desc>Original HD2 Chaos Slot Machine catalog symbol. Not an official game icon or weapon render.</desc><defs><linearGradient id="plate" x2="0" y2="1"><stop stop-color="#182c39"/><stop offset="1" stop-color="#091219"/></linearGradient></defs><rect x="3" y="3" width="250" height="138" rx="14" fill="url(#plate)" stroke="#60747e"/><path d="M18 22v-7h25m170 0h25v7M18 112v8h24m172 0h24v-8" fill="none" stroke="#536976"/><g fill="none" stroke="#ffe34c" stroke-width="3" stroke-linejoin="round" stroke-linecap="round"><path d="M62 46h107l16 13-12 19h-58l-16 26H73l13-28H62z"/><path d="M119 46V34h28v12M107 78l20 14 9-14M75 55h74"/><path d="M199 47l13 17-13 17v-10h-14V57h14z"/></g><text x="128" y="132" fill="#c9d5dc" font-family="sans-serif" font-size="11" letter-spacing="1" text-anchor="middle">P-34</text></svg>
