<svg xmlns="http://www.w3.org/2000/svg" width="240" height="240" viewBox="0 0 240 240">
  <title>Original volcanic biome globe illustration</title>
  <defs>
    <radialGradient id="surface" cx="30%" cy="25%" r="80%"><stop stop-color="#bb5033"/><stop offset=".5" stop-color="#332c32"/><stop offset="1" stop-color="#101820"/></radialGradient>
    <radialGradient id="shade" cx="30%" cy="28%" r="76%"><stop offset=".35" stop-color="#030910" stop-opacity="0"/><stop offset=".8" stop-color="#030910" stop-opacity=".5"/><stop offset="1" stop-color="#030910" stop-opacity=".95"/></radialGradient>
    <linearGradient id="rim" x2="1" y2="1"><stop stop-color="#ffad5a" stop-opacity=".8"/><stop offset="1" stop-color="#ffad5a" stop-opacity=".05"/></linearGradient>
    <clipPath id="disc"><circle cx="120" cy="120" r="96"/></clipPath>
  </defs>
  <circle cx="120" cy="120" r="109" fill="none" stroke="#ffad5a" stroke-opacity=".13"/>
  <path d="M120 5v10m0 210v10M5 120h10m210 0h10" stroke="#ffad5a" stroke-opacity=".5"/>
  <circle cx="120" cy="120" r="100" fill="#ffad5a" fill-opacity=".08"/>
  <circle cx="120" cy="120" r="96" fill="url(#surface)"/>
  <g clip-path="url(#disc)">
    <g fill="#bb5033" opacity=".75"><path d="m36 63 30 14 14 28 36 6 13 23-6 19 18 31-2 38" fill="none" stroke="#ff9c4a" stroke-width="4"/><path d="m81 105 19-28 20-4 19-32M124 149l32-16 8-31 30-15M140 182l37 8" fill="none" stroke="#f27837" stroke-width="2"/><path d="m35 128 23-8 10 24-7 33-17-9Zm123-69 20-12 28 27-17 9Z"/></g>
    <g fill="none" stroke="#ffad5a" stroke-opacity=".22" stroke-width="3">
      <path d="M32 56Q88 27 151 48M31 96Q63 69 101 86M115 161q42 30 85 6M41 193q34 18 75 12"/>
    </g>
    <circle cx="120" cy="120" r="96" fill="url(#shade)"/>
    <ellipse cx="84" cy="54" rx="38" ry="9" transform="rotate(-30 84 54)" fill="#ffad5a" opacity=".12"/>
  </g>
  <circle cx="120" cy="120" r="96" fill="none" stroke="url(#rim)" stroke-width="2"/>
</svg>
